<?xml version="1.0" encoding="UTF-8"?>
<svg xmlns="http://www.w3.org/2000/svg" width="307" height="56" viewBox="0 0 307 56" fill="none">
  <path fill-rule="evenodd" clip-rule="evenodd" d="M20.142 12.9294H15.5103V9.69707C15.5103 7.93397 14.0411 6.46472 12.278 6.46472C10.7131 6.46472 9.37969 7.62218 9.09966 9.11524C9.51089 8.92284 9.9671 8.81495 10.4449 8.81495C12.208 8.81495 13.6772 10.2842 13.6772 12.0473V15.2797H20.142V12.9294ZM5.27878 3.00003C6.31874 1.92897 7.60628 1.0957 9.04562 0.587698C10.0741 0.220385 11.1026 0 12.278 0H12.3514C16.5388 0.0734618 20.065 2.71812 21.3874 6.46472C21.7547 7.49319 21.9751 8.59513 21.9751 9.69707V12.9294H20.8898V16.0275H12.9294V12.0473C12.9294 10.6972 11.795 9.56275 10.4449 9.56275C9.93014 9.56275 9.44675 9.72765 9.04562 10.0065V16.3087C9.04562 16.823 9.19255 17.3372 9.55986 17.778L20.7262 31.5155C21.5343 32.4705 21.9751 33.6459 21.9751 34.8948V42.7553C21.9751 43.8572 21.7547 44.9592 21.3874 45.9876C21.1549 46.6464 20.8542 47.2711 20.4939 47.8537C20.4235 48.1022 20.345 48.3472 20.2591 48.5878C18.8337 52.625 15.0341 55.4713 10.5315 55.5503L10.5249 55.5504H10.4449C9.16879 55.5504 8.05504 55.3098 6.96203 54.9195C2.92882 53.4953 0 49.6214 0 45.1055V41.1988H2.5809V39.5964H9.04562V42.7553C9.04562 44.5184 10.5149 45.9876 12.278 45.9876C12.4475 45.9876 12.6143 45.9741 12.7773 45.9479C12.8756 45.6837 12.9294 45.3997 12.9294 45.1055V38.4939C12.9294 38.1919 12.7982 37.8337 12.5594 37.4677L1.33673 23.6777L1.33048 23.6696C0.503891 22.595 0 21.2617 0 19.8344V11.9738C0 8.10959 2.143 4.7757 5.27878 3.00003ZM3.76626 5.03498C1.91179 6.77659 0.747803 9.23365 0.747803 11.9738V19.8344C0.747803 21.0832 1.18858 22.2586 1.92321 23.2136L13.163 37.0246C13.4569 37.4654 13.6772 37.9796 13.6772 38.4939V45.1055C13.6772 45.3037 13.6587 45.4982 13.6232 45.6874C14.7295 45.1698 15.5103 44.0406 15.5103 42.7553V36.1436C15.5103 35.6294 15.29 35.1152 14.9961 34.6744L3.75631 20.8634C3.02168 19.9084 2.5809 18.733 2.5809 17.4841V9.62361C2.5809 7.95689 3.01154 6.39492 3.76626 5.03498ZM2.5809 41.9466H0.747803V45.1055C0.747803 49.2929 3.46592 52.8926 7.21252 54.2149C8.241 54.5822 9.26948 54.8026 10.4449 54.8026H10.5183C14.1297 54.7392 17.2492 52.7635 18.8874 49.8177C17.1793 51.421 14.8866 52.4079 12.3514 52.4524H12.278C11.1026 52.4524 10.0741 52.232 9.04562 51.8647C5.29902 50.5423 2.5809 46.9427 2.5809 42.7553V41.9466ZM38.6109 0.514237H45.0756V42.7553C45.0756 44.6062 44.5445 46.3423 43.6283 47.8177C42.7273 51.1236 40.2247 53.7907 37.0285 54.9195C35.9322 55.3109 34.7453 55.5504 33.5455 55.5504C32.2693 55.5504 31.1555 55.3097 30.0625 54.9195C26.0293 53.4952 23.1006 49.6214 23.1006 45.1055V2.11667H25.6815V0.514237H32.1462V42.7553C32.1462 44.5184 33.6155 45.9876 35.3786 45.9876C35.5481 45.9876 35.7149 45.9741 35.8779 45.9479C35.9761 45.6837 36.03 45.3997 36.03 45.1055V2.11667H38.6109V0.514237ZM38.6109 2.86447H36.7778V45.1055C36.7778 45.3037 36.7592 45.4982 36.7238 45.6874C37.8301 45.1698 38.6109 44.0406 38.6109 42.7553V2.86447ZM25.6815 2.86447H23.8484V45.1055C23.8484 49.2929 26.5665 52.8926 30.3131 54.2149C31.3416 54.5822 32.3701 54.8026 33.5455 54.8026C34.6474 54.8026 35.7493 54.5822 36.7778 54.2149C39.0121 53.4263 40.8807 51.8278 42.0251 49.7777C41.0522 50.6945 39.8917 51.4126 38.6109 51.8647C37.5824 52.232 36.4805 52.4524 35.3786 52.4524C34.2032 52.4524 33.1747 52.232 32.1462 51.8647C28.3996 50.5423 25.6815 46.9427 25.6815 42.7553V2.86447ZM68.1762 0.367313H61.9319L61.1043 1.96974H59.6434L57.7565 5.62294L55.0998 0.367313H48.7821V1.96974H46.2011V55.1096H54.1615V52.0116H55.2468V22.3243L56.646 25.091L59.1306 20.1783V55.1096H67.0909V52.0116H68.1762V0.367313ZM60.718 2.71755H60.0988L58.1728 6.44649L58.4791 7.05242L60.718 2.71755ZM48.7821 2.71755H46.949V54.3618H53.4137V52.0116H48.7821V2.71755ZM55.2468 20.6673L56.646 23.434L58.1569 20.4466L55.2468 14.6925V20.6673ZM59.8784 18.3171L61.7115 14.6925V52.0116H66.3431V54.3618H59.8784V18.3171ZM78.3474 51.9381V7.05242H71.8826V2.93793H70.0495V9.40265H76.5143V54.2884H82.9055V51.9381H78.3474ZM83.6533 51.9381H84.7386V10.1505H90.118V7.05242H91.2033V0.587698H71.8826V2.19013H69.3017V10.1505H75.7664V55.0362H83.6533V51.9381ZM89.3702 7.05242V9.40265H84.7386V7.05242H89.3702ZM114.306 0.514237H107.841V2.11667H105.26V13.3702H101.376V0.514237H94.9115V2.11667H92.3306V55.0362H100.291V51.9381H101.376V22.8595H105.26V55.0362H113.22V51.9381H114.306V0.514237ZM107.841 2.86447H106.008V13.3702H107.841V2.86447ZM94.9115 2.86447H93.0784V54.2884H99.5431V51.9381H94.9115V2.86447ZM101.376 22.1117V19.7615H107.841V51.9381H112.473V54.2884H106.008V22.1117H101.376ZM122.57 51.9381H118.012V2.86447H116.179V54.2884H122.57V51.9381ZM118.012 2.11667V0.514237H124.403V51.9381H123.318V55.0362H115.431V2.11667H118.012ZM134.3 0.514237H128.056V2.11667H125.475V55.0362H133.435V51.9381H134.52V22.4262L138.404 30.1497V55.0362H146.291V51.9381H147.376V0.514237H140.985V2.11667H138.404V8.54224L134.3 0.514237ZM128.056 2.86447H126.223V54.2884H132.687V51.9381H128.056V2.86447ZM134.52 20.7616L139.152 29.9722V54.2884H145.543V51.9381H140.985V27.622L134.52 14.766V20.7616ZM140.985 2.86447V13.5906L139.152 10.005V2.86447H140.985ZM171.83 0.514237C172.932 0.514237 174.034 0.734627 175.062 1.10194C178.809 2.42427 181.527 6.02394 181.527 10.2113V42.2411C181.527 44.092 180.996 45.8281 180.08 47.3035C179.179 50.6093 176.676 53.2763 173.48 54.4051C172.384 54.7966 171.197 55.0362 169.997 55.0362H159.552V2.11667H162.133V0.514237H171.83ZM162.133 2.86447H160.3V54.2884H169.997C171.099 54.2884 172.201 54.068 173.229 53.7007C175.463 52.9121 177.332 51.3136 178.476 49.2635C177.503 50.1803 176.343 50.8984 175.062 51.3504C174.034 51.7177 172.932 51.9381 171.83 51.9381H168.597H162.133V2.86447ZM173.175 45.1731C174.281 44.6555 175.062 43.5264 175.062 42.2411V10.2113C175.062 8.44821 173.593 6.97895 171.83 6.97895H168.597V9.32919H169.997C171.76 9.32919 173.229 10.7984 173.229 12.5615V44.5913C173.229 44.7895 173.21 44.984 173.175 45.1731ZM172.329 45.4337C172.427 45.1695 172.481 44.8855 172.481 44.5913V12.5615C172.481 11.2114 171.347 10.077 169.997 10.077H168.597V45.4734H171.83C171.999 45.4734 172.166 45.4598 172.329 45.4337ZM204.627 0.514237H198.163V2.11667H195.582V45.1055C195.582 45.3997 195.528 45.6837 195.43 45.9479C195.267 45.9741 195.1 45.9876 194.93 45.9876C193.167 45.9876 191.698 44.5184 191.698 42.7553V0.514237H185.233V2.11667H182.652V45.1055C182.652 49.6213 185.581 53.495 189.614 54.9193C190.707 55.3097 191.821 55.5504 193.097 55.5504C194.297 55.5504 195.484 55.3108 196.581 54.9193C199.777 53.7906 202.279 51.1235 203.18 47.8177C204.096 46.3423 204.627 44.6062 204.627 42.7553V0.514237ZM198.163 2.86447H196.33V45.1055C196.33 45.3037 196.311 45.4982 196.276 45.6874C197.382 45.1698 198.163 44.0406 198.163 42.7553V2.86447ZM185.233 2.86447V42.7553C185.233 46.9427 187.951 50.5423 191.698 51.8647C192.726 52.232 193.755 52.4524 194.93 52.4524C196.032 52.4524 197.134 52.232 198.163 51.8647C199.443 51.4126 200.604 50.6945 201.577 49.7777C200.432 51.8278 198.564 53.4263 196.33 54.2149C195.301 54.5822 194.199 54.8026 193.097 54.8026C191.922 54.8026 190.893 54.5822 189.865 54.2149C186.118 52.8926 183.4 49.2929 183.4 45.1055V2.86447H185.233ZM221.484 0.367313H227.728V52.0116H226.643V55.1096H218.682V20.1783L216.198 25.091L214.799 22.3243V52.0116H213.713V55.1096H205.753V1.96974H208.334V0.367313H214.652L217.308 5.62293L219.195 1.96974H220.656L221.484 0.367313ZM220.27 2.71755H219.651L217.725 6.44649L218.031 7.05242L220.27 2.71755ZM208.334 2.71755H206.501V54.3618H212.965V52.0116H208.334V2.71755ZM214.799 20.6673L216.198 23.434L217.709 20.4466L214.799 14.6925V20.6673ZM219.43 18.3171V54.3618H225.895V52.0116H221.263V14.6925L219.43 18.3171ZM244.364 1.10194C243.335 0.734627 242.233 0.514237 241.132 0.514237H231.434V2.11667H228.854V55.0362H236.814V51.9381H237.899V23.0064H239.298C240.498 23.0064 241.684 22.7672 242.78 22.3761C245.977 21.2477 248.48 18.5802 249.381 15.2737C250.297 13.7983 250.829 12.0622 250.829 10.2113C250.829 5.95048 248.11 2.42427 244.364 1.10194ZM231.434 2.86447H229.601V54.2884H236.066V51.9381H231.434V2.86447ZM237.899 22.2586V19.9084H241.132C242.233 19.9084 243.335 19.688 244.364 19.3207C245.645 18.8687 246.805 18.1505 247.778 17.2337C246.634 19.2838 244.765 20.8823 242.531 21.6709C241.502 22.0382 240.4 22.2586 239.298 22.2586H237.899ZM237.899 6.97895H241.132C242.895 6.97895 244.364 8.44821 244.364 10.2113C244.364 11.4966 243.583 12.6258 242.477 13.1434C242.512 12.9543 242.531 12.7598 242.531 12.5615C242.531 10.7984 241.061 9.32919 239.298 9.32919H237.899V6.97895ZM241.631 13.404C241.468 13.4301 241.301 13.4437 241.132 13.4437H237.899V10.077H239.298C240.648 10.077 241.783 11.2114 241.783 12.5615C241.783 12.8558 241.729 13.1397 241.631 13.404ZM273.929 45.4734V51.9381H272.844V55.0362H251.954V2.11667H254.535V0.514237H261V45.4734H273.929ZM272.096 51.9381H254.535V2.86447H252.702V54.2884H272.096V51.9381ZM282.942 51.9381H284.027V0.514237H277.636V2.11667H275.055V55.0362H282.942V51.9381ZM277.636 2.86447V51.9381H282.194V54.2884H275.802V2.86447H277.636ZM287.679 0.514237H293.924L298.028 8.54225V2.11667H300.609V0.514237H307V51.9381H305.915V55.0362H298.028V30.1497L294.144 22.4262V51.9381H293.059V55.0362H285.098V2.11667H287.679V0.514237ZM287.679 2.86447H285.846V54.2884H292.311V51.9381H287.679V2.86447ZM294.144 20.7616L298.776 29.9722V54.2884H305.167V51.9381H300.609V27.622L294.144 14.766V20.7616ZM300.609 2.86447H298.776V10.005L300.609 13.5906V2.86447Z" fill="#DD3025"></path>
</svg>
